<?xml version="1.0" encoding="UTF-8"?>
<svg version="1.1" xmlns="http://www.w3.org/2000/svg" width="1500" height="1500">
<path d="M0 0 C495 0 990 0 1500 0 C1500 495 1500 990 1500 1500 C1005 1500 510 1500 0 1500 C0 1005 0 510 0 0 Z " fill="#FEFEFE" transform="translate(0,0)"/>
<path d="M0 0 C53.7075 -0.061875 53.7075 -0.061875 108.5 -0.125 C125.43151367 -0.15231201 125.43151367 -0.15231201 142.70507812 -0.18017578 C156.53417969 -0.18920898 156.53417969 -0.18920898 163.01696777 -0.19088745 C167.52545152 -0.1927438 172.03388772 -0.20021106 176.5423584 -0.21115112 C182.30848404 -0.22495577 188.0745414 -0.22896638 193.84068203 -0.22614455 C195.94729209 -0.22673388 198.05390475 -0.23064822 200.16050053 -0.23843026 C215.48194456 -0.29236126 230.28770046 0.50540892 245.25 4.125 C246.12277588 4.33600342 246.99555176 4.54700684 247.89477539 4.7644043 C266.4329638 9.48760506 284.39133382 17.50117775 299 30 C299.79792969 30.66515625 300.59585937 31.3303125 301.41796875 32.015625 C321.47746567 49.30722234 334.23478243 72.58277579 337 99 C338.56134128 135.35430732 331.34116019 165.29774085 306.35449219 192.53271484 C305.90750977 193.01691895 305.46052734 193.50112305 305 194 C304.31164063 194.75925781 303.62328125 195.51851562 302.9140625 196.30078125 C285.89475448 214.2177321 262.94015272 225.03246136 239.375 231.3125 C238.46999756 231.55508545 237.56499512 231.7976709 236.63256836 232.04760742 C220.33169302 236.16540154 204.40570246 236.27240776 187.69140625 236.1953125 C185.54227808 236.19236522 183.39314846 236.19032901 181.24401855 236.18920898 C173.35015688 236.17880104 165.45632611 236.15087877 157.5625 236.125 C131.0490625 236.063125 131.0490625 236.063125 104 236 C104 282.2 104 328.4 104 376 C69.68 376 35.36 376 0 376 C0 251.92 0 127.84 0 0 Z " fill="#010101" transform="translate(796,562)"/>
<path d="M0 0 C22.44 0 44.88 0 68 0 C74.65288342 7.31817176 81.27782591 14.61331514 87.67578125 22.1484375 C93.22350723 28.67226264 98.86395668 35.06525674 104.71411133 41.31958008 C107.7383702 44.57331665 110.60000498 47.90240919 113.375 51.375 C117.60978848 56.65693617 122.19871525 61.53876878 126.84716797 66.45263672 C130.98587046 70.85049683 134.82731544 75.40290295 138.59375 80.125 C141.59742005 83.71380058 144.78474154 87.1012067 148 90.5 C152.77178383 95.54416896 157.26183993 100.69394856 161.59375 106.125 C164.59742005 109.71380058 167.78474154 113.1012067 171 116.5 C175.77178383 121.54416896 180.26183993 126.69394856 184.59375 132.125 C187.59742005 135.71380058 190.78474154 139.1012067 194 142.5 C198.77178383 147.54416896 203.26183993 152.69394856 207.59375 158.125 C210.59742005 161.71380058 213.78474154 165.1012067 217 168.5 C221.77178383 173.54416896 226.26183993 178.69394856 230.59375 184.125 C233.59742005 187.71380058 236.78474154 191.1012067 240 194.5 C244.77178383 199.54416896 249.26183993 204.69394856 253.59375 210.125 C256.5974209 213.71380159 259.78475297 217.10119453 263 220.5 C267.78391028 225.55731275 272.29453767 230.71793708 276.63671875 236.1640625 C280.11699533 240.3403944 283.83608189 244.28363066 287.57250977 248.23071289 C288.10287842 248.79266357 288.63324707 249.35461426 289.1796875 249.93359375 C289.65132324 250.42915771 290.12295898 250.92472168 290.60888672 251.43530273 C292.1788528 253.20117016 293.58228731 255.10971642 295 257 C295.33 172.19 295.66 87.38 296 0 C311.84 0 327.68 0 344 0 C344 124.08 344 248.16 344 376 C321.56 376 299.12 376 276 376 C259.69652651 358.53199269 259.69652651 358.53199269 253.74560547 351.52246094 C252.2695406 349.78440609 250.79163162 348.04794577 249.3125 346.3125 C248.80017822 345.71131348 248.28785645 345.11012695 247.76000977 344.49072266 C243.7176704 339.77497386 239.52823035 335.21585158 235.28588867 330.68041992 C232.2616298 327.42668335 229.39999502 324.09759081 226.625 320.625 C221.7935386 314.60330632 216.50788329 309.04562085 211.21875 303.4296875 C207.26683983 299.23191078 203.47654227 294.91709495 199.74560547 290.52246094 C198.2695406 288.78440609 196.79163162 287.04794577 195.3125 285.3125 C194.80017822 284.71131348 194.28785645 284.11012695 193.76000977 283.49072266 C189.7176704 278.77497386 185.52823035 274.21585158 181.28588867 269.68041992 C178.2616298 266.42668335 175.39999502 263.09759081 172.625 259.625 C168.39021152 254.34306383 163.80128475 249.46123122 159.15283203 244.54736328 C155.01412954 240.14950317 151.17268456 235.59709705 147.40625 230.875 C144.40257995 227.28619942 141.21525846 223.8987933 138 220.5 C133.22821617 215.45583104 128.73816007 210.30605144 124.40625 204.875 C121.40257995 201.28619942 118.21525846 197.8987933 115 194.5 C110.22821617 189.45583104 105.73816007 184.30605144 101.40625 178.875 C98.40257995 175.28619942 95.21525846 171.8987933 92 168.5 C87.22821617 163.45583104 82.73816007 158.30605144 78.40625 152.875 C74.83617908 148.60946071 70.99674956 144.60969755 67.17431641 140.57104492 C62.83965468 135.96642675 58.78751016 131.23476482 54.8671875 126.26953125 C53.04871824 124.05921611 51.02389766 122.02389766 49 120 C48.67 204.48 48.34 288.96 48 376 C32.16 376 16.32 376 0 376 C0 251.92 0 127.84 0 0 Z " fill="#000000" transform="translate(367,562)"/>
<path d="M0 0 C2.6035262 2.6035262 2.34560255 3.87801859 2.55796814 7.5160675 C2.6307451 8.69262752 2.70352205 9.86918753 2.77850437 11.08140087 C2.84893924 12.38396485 2.9193741 13.68652884 2.99194336 15.02856445 C3.07333436 16.41771447 3.15536434 17.80682717 3.23798275 19.19590473 C3.50728202 23.79646904 3.75483974 28.39809537 4 33 C4.04211058 33.78270751 4.08422116 34.56541503 4.12760782 35.37184095 C4.77864167 47.47681843 5.38710372 59.58381876 5.98721814 71.69141173 C6.22911723 76.55977399 6.47392784 81.42798983 6.7184906 86.29621887 C7.28346311 97.55107238 7.84531406 108.80608048 8.40658569 120.06111908 C9.1244393 134.45546082 9.84305773 148.84976303 10.56595558 163.24385244 C10.85517034 169.00498483 11.14245114 174.76620924 11.42817509 180.52751577 C11.60616243 184.10852177 11.78580055 187.68944364 11.96586609 191.27034569 C12.04838961 192.91816774 12.13023932 194.56602371 12.21133232 196.21391678 C12.65183052 205.15772706 13.17511119 214.08151208 14 223 C15.65 223.33 17.3 223.66 19 224 C22.53698591 220.05490034 24.86595146 215.70986385 27.34375 211.0703125 C29.11531614 207.78622998 30.94805144 204.54472025 32.8125 201.3125 C33.39644531 200.29800781 33.98039063 199.28351563 34.58203125 198.23828125 C35.04996094 197.49964844 35.51789063 196.76101563 36 196 C36.33 196 36.66 196 37 196 C37 270.58 37 345.16 37 422 C34.23412886 418.54266107 32.16775429 415.76455712 30.08984375 411.98828125 C29.57486328 411.06595703 29.05988281 410.14363281 28.52929688 409.19335938 C27.46222414 407.26215412 26.39714044 405.32984858 25.33398438 403.39648438 C24.82029297 402.47802734 24.30660156 401.55957031 23.77734375 400.61328125 C23.31577881 399.77579346 22.85421387 398.93830566 22.37866211 398.07543945 C21.01302118 395.72979823 21.01302118 395.72979823 18 394 C15.84725052 394.30840599 15.84725052 394.30840599 14 395 C13.08279883 401.49088786 12.69719063 407.92962969 12.421875 414.4765625 C12.31446908 416.87923612 12.20696008 419.28190514 12.09936523 421.68457031 C12.04287811 422.97093384 11.98639099 424.25729736 11.92819214 425.5826416 C11.61503482 432.70922189 11.28778837 439.83515468 10.95703125 446.9609375 C10.92119997 447.73344849 10.88536869 448.50595947 10.84845161 449.30187988 C10.20706309 463.07135121 9.49656395 476.83678746 8.76171875 490.6015625 C8.68043795 492.12419394 8.68043795 492.12419394 8.59751511 493.6775856 C8.05613388 503.80514456 7.50949488 513.9324145 6.95869637 524.05946541 C6.69913306 528.83645424 6.44107301 533.61352343 6.18359375 538.390625 C6.13337696 539.32029964 6.08316017 540.24997429 6.03142166 541.20782089 C5.14323038 557.70635327 4.37381891 574.20924487 3.6749115 590.71685791 C2.61765463 615.38234537 2.61765463 615.38234537 0 618 C-2.5 618.25 -2.5 618.25 -5 618 C-8.3204628 614.6795372 -8.1200802 610.47490987 -8.34130859 605.95263672 C-8.39173309 604.95982193 -8.44215759 603.96700714 -8.49411011 602.94410706 C-8.54503815 601.8668486 -8.59596619 600.78959015 -8.6484375 599.6796875 C-8.70540802 598.5387413 -8.76237854 597.3977951 -8.82107544 596.22227478 C-9.00917382 592.44001205 -9.19206594 588.65751574 -9.375 584.875 C-9.50678119 582.20530263 -9.63887034 579.5356227 -9.77148438 576.8659668 C-9.97725551 572.71907051 -10.18266629 568.57215792 -10.3862915 564.42515564 C-10.8318312 555.35443835 -11.2894152 546.28441519 -11.7578125 537.21484375 C-13.12912614 510.62671452 -14.43014572 484.03646442 -15.65750504 457.44137955 C-16.63411148 436.28552144 -17.69178396 415.13814068 -19 394 C-21.87596061 393.67125838 -21.87596061 393.67125838 -25 394 C-26.79407623 395.61701905 -26.79407623 395.61701905 -27.95703125 397.9375 C-28.42947266 398.74960937 -28.90191406 399.56171875 -29.38867188 400.3984375 C-30.0934668 401.68621094 -30.0934668 401.68621094 -30.8125 403 C-31.77487417 404.68890961 -32.73958352 406.37649152 -33.70703125 408.0625 C-34.1244458 408.81660156 -34.54186035 409.57070313 -34.97192383 410.34765625 C-35.48082153 411.16556641 -35.48082153 411.16556641 -36 412 C-36.33 412 -36.66 412 -37 412 C-37 343.69 -37 275.38 -37 205 C-33.88630313 209.15159583 -31.55779872 213.47654224 -29.3125 218.13085938 C-28.2427975 220.26489181 -28.2427975 220.26489181 -26 223 C-22.41845535 223.7358216 -22.41845535 223.7358216 -19 224 C-18.94423074 222.88717085 -18.88846148 221.7743417 -18.83100224 220.62779045 C-17.47444445 193.56199312 -16.11389406 166.49639875 -14.74914646 139.43101311 C-14.08926032 126.34244912 -13.43067612 113.25382203 -12.77514648 100.16503906 C-12.20384695 88.75812169 -11.63011521 77.35132971 -11.053451 65.94468224 C-10.74814115 59.90384135 -10.44405738 53.86294431 -10.14288521 47.8218956 C-9.85943174 42.13702917 -9.5727289 36.45233595 -9.28352356 30.76775932 C-9.17790769 28.68046666 -9.07348329 26.59311331 -8.97033501 24.50569725 C-8.82938317 21.65685388 -8.68415504 18.80825938 -8.53785706 15.95968628 C-8.49796947 15.13282755 -8.45808188 14.30596882 -8.41698557 13.45405376 C-8.19638201 9.25173041 -7.97091386 5.10855087 -7 1 C-4.48718205 -0.25640898 -2.78302919 -0.20872719 0 0 Z " fill="#020202" transform="translate(753,441)"/>
<path d="M0 0 C88.9375 0 88.9375 0 109.05859375 18.9375 C125.58266294 36.60242921 128.66057746 60.19473396 128.2578125 83.34375 C127.96263867 92.01410849 126.66835374 100.49761961 125 109 C124.79503906 110.05574219 124.59007812 111.11148438 124.37890625 112.19921875 C120.48491081 128.76683911 110.20371032 143.66085521 96 153 C67.4811876 169.61028128 30.48410616 163 0 163 C0 109.21 0 55.42 0 0 Z " fill="#FEFEFE" transform="translate(900,599)"/>
<path d="M0 0 C3.83324097 0.31705091 6.6402817 2.56550652 9.7578125 4.6640625 C10.60910736 5.23376266 10.60910736 5.23376266 11.4776001 5.81497192 C13.36386036 7.07943246 15.24438968 8.35215472 17.125 9.625 C18.45883505 10.52162329 19.79298867 11.41777284 21.12744141 12.31347656 C25.4239912 15.20057515 29.71236684 18.09968256 34 21 C35.4511404 21.98084084 36.90231221 22.96163521 38.35351562 23.94238281 C39.07132202 24.4277652 39.78912842 24.91314758 40.52868652 25.41323853 C41.97804508 26.39277399 43.42799656 27.37143272 44.87854004 28.34921265 C48.49219231 30.78753949 52.09184871 33.24273425 55.66796875 35.73583984 C62.10704269 40.20069038 68.42205637 44.36749465 75.484375 47.78125 C88.42626399 54.3507555 88.42626399 54.3507555 92 60 C95.29894614 71.04766605 93.44633456 83.76309306 92 95 C86.709848 91.22338154 82.00292465 87.24345534 77.5 82.5625 C73.41124453 78.38899129 69.28098705 74.38951731 64.82421875 70.60546875 C62.08349555 68.19339758 59.56433135 65.57316628 57.00390625 62.97265625 C54.41753849 60.42662171 51.6846472 58.07978443 48.93359375 55.71484375 C46.43430862 53.49830603 44.11718116 51.12837719 41.77734375 48.74609375 C39.93406426 46.93522357 38.02177201 45.24678646 36.0625 43.5625 C32.53365237 40.52320349 29.26994973 37.28983153 26.00390625 33.97265625 C23.41753849 31.42662171 20.6846472 29.07978443 17.93359375 26.71484375 C15.43981197 24.50318678 13.12745602 22.13894263 10.79296875 19.76171875 C8.86206771 17.86447176 6.85776455 16.08556668 4.8125 14.3125 C3.81863281 13.44431641 3.81863281 13.44431641 2.8046875 12.55859375 C1.36338194 11.31382986 -0.09656092 10.0906568 -1.5625 8.875 C-3 7 -3 7 -2.875 4.375 C-2 2 -2 2 0 0 Z " fill="#040404" transform="translate(566,600)"/>
<path d="M0 0 C7.46239512 0.67462651 14.86242521 1.63574319 22.27734375 2.70703125 C23.4421376 2.87369797 24.60693146 3.04036469 25.80702209 3.21208191 C28.27049652 3.5649635 30.73382735 3.91884884 33.19702148 4.27368164 C36.8673771 4.80239875 40.53813199 5.32825987 44.20898438 5.85351562 C50.24265869 6.71799017 56.27522816 7.58989429 62.30731201 8.46539307 C64.83525542 8.83137473 67.3634678 9.19550202 69.89190674 9.55804443 C73.67980992 10.10123487 77.46691949 10.64968043 81.25390625 11.19921875 C82.42090561 11.36541214 83.58790497 11.53160553 84.79026794 11.70283508 C85.85536087 11.85850449 86.9204538 12.01417389 88.01782227 12.17456055 C88.95876236 12.31024948 89.89970245 12.44593842 90.86915588 12.58573914 C93 13 93 13 94 14 C94.08790975 16.29151417 94.10694038 18.58572524 94.09765625 20.87890625 C94.0962413 21.5655687 94.09482635 22.25223114 94.09336853 22.95970154 C94.08775479 25.16067801 94.07520007 27.36155409 94.0625 29.5625 C94.05748676 31.05143083 94.05292355 32.54036324 94.04882812 34.02929688 C94.03778093 37.68623075 94.02050713 41.34310558 94 45 C86.57500888 43.69414414 79.49977694 41.73935818 72.32421875 39.4453125 C70.69369316 38.93108231 70.69369316 38.93108231 69.03022766 38.40646362 C65.58107748 37.31754806 62.13425052 36.22148467 58.6875 35.125 C55.25771162 34.03946799 51.82746694 32.95538959 48.39709473 31.8717041 C46.20086832 31.17679583 44.00529789 30.47981061 41.8104248 29.78063965 C37.4359016 28.38867621 33.06471185 27.0001249 28.65234375 25.73242188 C27.5025 25.40048828 26.35265625 25.06855469 25.16796875 24.7265625 C24.24395264 24.47213379 23.31993652 24.21770508 22.36791992 23.95556641 C17.85834133 22.13574059 15.03301349 18.67577132 12 15 C11.38511719 14.32324219 10.77023437 13.64648438 10.13671875 12.94921875 C6.41543556 8.84544821 3.13706133 4.5629983 0 0 Z " fill="#060606" transform="translate(564,700)"/>
<path d="M0 0 C1 1.8125 1 1.8125 1.0625 4.3125 C-0.48289536 7.94872439 -2.3705604 8.26095385 -6 9.8125 C-9.57470446 10.98229469 -13.18951194 11.9913222 -16.8125 13 C-25.49237596 15.46922343 -34.10554899 18.08459482 -42.6875 20.875 C-53.72430323 24.45597975 -64.82546321 27.68675544 -76 30.8125 C-76 23.5525 -76 16.2925 -76 8.8125 C-67.38599912 7.50318022 -58.77136225 6.19826397 -50.15553951 4.90098572 C-46.15446246 4.29836874 -42.1536903 3.69386262 -38.15356445 3.08496094 C-34.28982721 2.4968928 -30.42535604 1.91388939 -26.56033516 1.33432007 C-25.0893614 1.11284835 -23.61865629 0.88958429 -22.14823723 0.66445923 C-20.0812073 0.34831143 -18.01329494 0.03867719 -15.94506836 -0.26953125 C-14.18301308 -0.53600464 -14.18301308 -0.53600464 -12.38536072 -0.80786133 C-3.1120536 -1.84778182 -3.1120536 -1.84778182 0 0 Z " fill="#070707" transform="translate(981,695.1875)"/>
<path d="M0 0 C0 10.23 0 20.46 0 31 C-12.94201861 33.58840372 -12.94201861 33.58840372 -16 33 C-18.49582876 31.09028944 -20.46593748 28.82184645 -22.5 26.4375 C-23.04269531 25.82841797 -23.58539062 25.21933594 -24.14453125 24.59179688 C-25.78287511 22.74426114 -27.3908503 20.87296862 -29 19 C-29.57492187 18.35434082 -30.14984375 17.70868164 -30.7421875 17.04345703 C-31.29132812 16.42196777 -31.84046875 15.80047852 -32.40625 15.16015625 C-32.90447266 14.60078369 -33.40269531 14.04141113 -33.91601562 13.46508789 C-35 12 -35 12 -35 10 C-31.22867534 8.73463137 -27.45668715 7.47126286 -23.68408203 6.2097168 C-22.40167295 5.78057435 -21.11944415 5.35089273 -19.83740234 4.9206543 C-17.99103915 4.30114143 -16.14396488 3.68374912 -14.296875 3.06640625 C-13.18666992 2.69459229 -12.07646484 2.32277832 -10.93261719 1.93969727 C-6.97647888 0.67203357 -4.19697524 0 0 0 Z " fill="#090909" transform="translate(658,756)"/>
<path d="M0 0 C3.78413228 3.18981457 7.49517115 6.37465198 10.9375 9.9375 C14.17270438 13.22266893 17.54524794 16.26071569 21.04296875 19.26171875 C23.67095389 21.59595705 26.11588895 24.08764296 28.5546875 26.6171875 C29.97109777 28.10854485 29.97109777 28.10854485 32 29 C32.125 31.375 32.125 31.375 32 34 C30 36 30 36 27.74731445 36.31567383 C21.91891131 35.64597461 17.02803766 31.81823007 12.1875 28.6875 C11.60807648 28.31561554 11.02865295 27.94373108 10.43167114 27.56057739 C1.02408403 21.35281155 1.02408403 21.35281155 -1.16210938 16.33007812 C-2.16420638 10.69788394 -1.35981224 5.50572865 0 0 Z " fill="#050505" transform="translate(905,864)"/>
<path d="M0 0 C1.58941406 0.05414062 1.58941406 0.05414062 3.2109375 0.109375 C4.40589844 0.17898438 4.40589844 0.17898438 5.625 0.25 C5.04994023 3.54935533 4.13733262 5.07844292 1.66796875 7.31640625 C0.74927002 8.16066162 0.74927002 8.16066162 -0.18798828 9.02197266 C-0.84782715 9.61284668 -1.50766602 10.2037207 -2.1875 10.8125 C-2.86022949 11.42657715 -3.53295898 12.0406543 -4.22607422 12.67333984 C-5.60518342 13.93125164 -6.98735826 15.18581057 -8.37255859 16.43701172 C-10.21383437 18.10408242 -12.0417157 19.78410562 -13.86328125 21.47265625 C-18.26238294 25.5439739 -22.65292321 29.55075573 -27.375 33.25 C-29.1662038 20.32679632 -29.1662038 20.32679632 -27.375 14.25 C-24.07307534 9.88845876 -19.09820765 7.5226677 -14.25146484 5.21044922 C-12.0931204 4.16596663 -12.0931204 4.16596663 -9.28125 2.01171875 C-5.87241938 -0.05465572 -3.94133934 -0.17517064 0 0 Z " fill="#050505" transform="translate(932.375,603.75)"/>
<path d="M0 0 C1.58984375 1.58203125 1.58984375 1.58203125 2.9375 3.8125 C3.43378906 4.62203125 3.93007813 5.4315625 4.44140625 6.265625 C7.03048747 10.80787275 9.56202157 15.37475723 12 20 C11.19175781 20.33644531 10.38351562 20.67289063 9.55078125 21.01953125 C6.62479738 22.84441143 6.62479738 22.84441143 6.29296875 26.57421875 C6.23339267 27.94446863 6.19902518 29.31600403 6.1875 30.6875 C6.16236328 31.38939453 6.13722656 32.09128906 6.11132812 32.81445312 C6.05255552 34.54236781 6.0233903 36.2712443 6 38 C2.27041822 34.27041822 0.99854964 28.67355116 -0.85058594 23.78857422 C-1.61841677 21.76732976 -2.40238056 19.75286224 -3.1875 17.73828125 C-3.68069148 16.44569513 -4.17291039 15.15273741 -4.6640625 13.859375 C-5.11217285 12.68858398 -5.5602832 11.51779297 -6.02197266 10.31152344 C-6.9951513 7.01641733 -7.1937549 4.41241913 -7 1 C-4.43152008 -0.28423996 -2.84627089 -0.33459978 0 0 Z " fill="#0B0B0B" transform="translate(652,536)"/>
<path d="M0 0 C1.12894876 0.93274109 2.25300876 1.87140122 3.375 2.8125 C4.00148438 3.33457031 4.62796875 3.85664062 5.2734375 4.39453125 C7 6 7 6 9 9 C6.79252608 10.58454292 4.58405258 12.16766053 2.375 13.75 C1.75753906 14.1934375 1.14007812 14.636875 0.50390625 15.09375 C-1.32558479 16.40328043 -3.16083891 17.70409112 -5 19 C-5.56203125 19.39848145 -6.1240625 19.79696289 -6.703125 20.20751953 C-9.97841218 22.47339708 -11.95645763 23.67392373 -16 23 C-18 21 -18 21 -18.3359375 18.578125 C-17.91584736 15.35417741 -17.14929194 14.72553282 -14.625 12.75 C-13.90570312 12.16605469 -13.18640625 11.58210937 -12.4453125 10.98046875 C-11.63835938 10.32691406 -10.83140625 9.67335938 -10 9 C-8.15787883 7.36400854 -6.32452756 5.71808982 -4.5 4.0625 C-3.6440625 3.29035156 -2.788125 2.51820313 -1.90625 1.72265625 C-0.96265625 0.86994141 -0.96265625 0.86994141 0 0 Z " fill="#070707" transform="translate(581,877)"/>
<path d="M0 0 C4.62 0 9.24 0 14 0 C11.16960593 5.86295914 8.34666511 11.6979311 4.9375 17.25 C4.49277344 17.97703125 4.04804687 18.7040625 3.58984375 19.453125 C2 21 2 21 -0.55859375 21.359375 C-3 21 -3 21 -5 19 C-5.72929144 12.01095706 -2.59328168 6.35354012 0 0 Z " fill="#0A0A0A" transform="translate(649,944)"/>
<path d="M0 0 C4.62 0 9.24 0 14 0 C19.56094183 13.62430748 19.56094183 13.62430748 19 19 C17 21 17 21 14.55859375 21.359375 C12 21 12 21 10.41015625 19.453125 C9.96542969 18.72609375 9.52070312 17.9990625 9.0625 17.25 C8.56621094 16.44175781 8.06992187 15.63351562 7.55859375 14.80078125 C4.85874247 9.94916879 2.41387118 5.00016173 0 0 Z " fill="#060606" transform="translate(836,944)"/>
<path d="M0 0 C5.875 0.875 5.875 0.875 7 2 C6.67239891 8.00602007 5.45151218 16.54848782 1 21 C-1.18639453 21.07258946 -3.37500389 21.08373783 -5.5625 21.0625 C-7.35880859 21.04896484 -7.35880859 21.04896484 -9.19140625 21.03515625 C-10.11824219 21.02355469 -11.04507813 21.01195312 -12 21 C-8.47851723 13.61987122 -4.74728968 6.66640679 0 0 Z " fill="#060606" transform="translate(849,535)"/>
<path d="M0 0 C9.24 0 18.48 0 28 0 C27.01 1.32 26.02 2.64 25 4 C22.5390625 4.2421875 22.5390625 4.2421875 19.625 3.875 C18.57054687 3.74996094 17.51609375 3.62492188 16.4296875 3.49609375 C15.29789063 3.33238281 14.16609375 3.16867187 13 3 C11.78570313 2.82597656 10.57140625 2.65195312 9.3203125 2.47265625 C6.2089337 2.00628984 3.1035495 1.51558967 0 1 C0 0.67 0 0.34 0 0 Z " fill="#1C1C1C" transform="translate(954,803)"/>
</svg>
